<?xml version="1.0" encoding="UTF-8"?><svg id="a" xmlns="http://www.w3.org/2000/svg" viewBox="0 0 825.05 762.52"><defs><style>.b{fill:#ff5a5c;fill-rule:evenodd;stroke-width:0px;}</style></defs><path class="b" d="M346.67,276.81v-61.99c0-73.72-59.19-134.6-132.91-134.83s-133.76,59.55-133.76,133.33v63.48c0,9.12-7.4,16.52-16.52,16.52H16.52C7.4,293.33,0,285.94,0,276.81v-61.61C0,97.63,96.19-.24,213.77,0s212.9,95.66,212.9,213.33v63.48c0,9.12-7.4,16.52-16.52,16.52h-46.96c-9.12,0-16.52-7.4-16.52-16.52Z"/><path class="b" d="M771.67,309.19h-426.57c-29.48,0-53.38,23.9-53.38,53.38v346.57c0,29.48,23.9,53.38,53.38,53.38h426.57c29.48,0,53.38-23.9,53.38-53.38v-346.57c0-29.48-23.9-53.38-53.38-53.38ZM604.57,522.26c-4.68,8.1-11.4,14.83-19.5,19.51-.01,0-.02.02-.02.04v60.11c0,14.56-11.41,26.88-25.96,27.26-15.05.39-27.37-11.7-27.37-26.66v-60.71s0-.03-.02-.04c-25.49-14.73-34.22-47.34-19.5-72.84,14.73-25.51,47.35-34.25,72.85-19.52,25.51,14.73,34.25,47.35,19.52,72.85Z"/></svg>